<svg xmlns="http://www.w3.org/2000/svg" data-name="Layer 2" viewBox="0 0 800 600" id="digital-marketing"><defs><clipPath id="a"><path fill="none" d="M526.56,352.32l-.87,12.35-6.16,16.82-4,11.07c-9.72,1.25-27.72,1.2-49.27,1.17-27.41,0-46,4.45-59.81,8.93l-31.64-9.76s-5.56-42.08-1.76-61.37c0,0,8.26,2,16.17,4.15,2.82.77,5.6,1.55,7.94,2.28l57.45,5.84,4.39.45Z"></path></clipPath><clipPath id="b"><path fill="none" d="M577,329.07l-40.52-.61-1.66-9-7.42,36.49L449.36,353,458,294l-41.65,12.43-11.7-41.85s33.83-10.61,46.84-14.41c15.36-4.49,26.7-2.63,35.12-3,1-.05,2-.12,2.87-.21,7.06-.69,8.92-2.37,8.92-2.37l13.3-.61a28.38,28.38,0,0,0,6.66,4.48c4.64,2.28,10.59,3.89,19.34,5.84,13.52,3,16.38,7.51,25.51,32.16C571.26,308.11,577,329.07,577,329.07Z"></path></clipPath></defs><circle cx="374.62" cy="80.01" r="14.27" fill="#a07df0"></circle><rect width="37.74" height="29.5" x="275.32" y="91.54" fill="#6788ec" rx="4.81" ry="4.81"></rect><path fill="#b7d1ff" d="M302.24,114.22c-1.62,1.5-9.1,1.33-13.58.68a11.27,11.27,0,0,1-3.13-.76c-1.3-.7-1.73-10.14-.38-10.27,1.18-.11,2.19-.23,3.07-.36,3.87-.58,5.2-1.52,7.12-4.16s3.07-2.86,3.33-.88c.19,1.41,0,3.61-1.61,4.84,0,0,4.5-.86,6,.29S304.43,112.19,302.24,114.22Z"></path><path fill="#fff" d="M302.24,114.22c-1.62,1.5-9.1,1.33-13.58.68l-.09-.18c-1-2-1.56-9.77-.35-11.21,3.87-.58,5.2-1.52,7.12-4.16s3.07-2.86,3.33-.88c.19,1.41,0,3.61-1.61,4.84,0,0,4.5-.86,6,.29S304.43,112.19,302.24,114.22Z"></path><circle cx="260.06" cy="156.51" r="15.26" fill="#a07df0"></circle><circle cx="289.12" cy="208.42" r="12.49" fill="#a07df0"></circle><path fill="#f1a19e" d="M419.07,302.37l-11.91,1.54-29.62,3.84s-16-71.29-19-77.31c-3.42-7-2.69-10.84-2.69-10.84-2.83.49-5,.56-8.7-5.7-2.58-4.32-1.31-11.27,0-12.81,1.63-1.9,6.34-4.44,11.66-5.85s7.32-1.16,7.32-1.16L362,171.74c4.58-2.33,5.8-.37,8.41,6.55s9.73,25,9.73,25c.53-6.23,1.18-9.22,2.86-9.36,2.15-.19,4,7.18,4.61,11.89,1.14,8.57-.9,15.27.84,20.66,1.21,3.71,11.61,36.63,13,39a3.31,3.31,0,0,0,2.07,1.45c2.49.62,5.83-.71,5.83-.71Z"></path><rect width="50.82" height="36.86" x="315.44" y="142.77" fill="#6788ec" rx="4.81" ry="4.81"></rect><path fill="#0b0e20" d="M419.07,302.37l-11.91,1.54-3.64-37c2.49.62,5.83-.71,5.83-.71Z"></path><path fill="#ddccfb" d="M583.8,486.76c-34.33,21.64-83,18.57-107.18,17.53s-168.48-11.4-173.35-13.35c-1.11-.44-2.37-8-3.66-19.35-.37-3.17-.73-6.63-1.09-10.33-4.08-41.55-8.11-112-8.11-112L485.3,362.46c9.69-34.28,22-65.77,68.78-60.83C623.51,337.7,629.82,457.74,583.8,486.76Z"></path><polygon fill="#0b0e20" points="311.64 268.11 395.4 272.53 416.06 347.14 329.89 338.32 311.64 268.11"></polygon><polygon fill="#0b0e20" points="403.85 332.8 462.3 338.68 460.61 348.77 402.73 343.17 403.85 332.8"></polygon><path fill="#f1a19e" d="M311.15,507c-27.23,8.14-41,8.81-49.26,5.74l27.74-37.28,1.88-2.53,6.53-8.78-.88-1.45-.34-.56-3.53-5.81-12.54-20.6s-12.2-55.36-17.3-74.9c-9.15-35.09,3.14-41.43,22.39-37.74l.47.09c16.8,3.35,22.84,4.26,22.84,4.26l6.81,34.7s1.21,10.54,3,23.42c1.62,11.93,3.69,25.88,5.66,35.32.52,2.49,1,4.67,1.53,6.41,2,7.08,5.19,18.77,8.09,29.79.72,2.75,1.43,5.46,2.1,8,.13.49.25,1,.38,1.47.24,1,.48,1.87.71,2.78,2,7.75,3.39,13.76,3.54,15.31C341.33,489,338.39,498.89,311.15,507Z"></path><path fill="#a07df0" d="M336.3,465.17l-39.14-2.43-7.87-.49,4-5.88L318,420.08l6.62.84c.52,2.49,1,4.67,1.53,6.41,1.17,4.13,2.74,9.82,4.42,16,.89,3.3,1.82,6.76,2.73,10.21.32,1.18.63,2.37.94,3.55C334.92,459.87,335.63,462.58,336.3,465.17Z"></path><path fill="#ddccfb" d="M333.26 453.57l-8-6.25 5.24-4C331.42 446.66 332.35 450.12 333.26 453.57zM319.86 441.06h7l-1.59-9.61s-9.57 1-9.52 1.29-1.37 4.06-1 4.13S319.86 441.06 319.86 441.06z"></path><polygon fill="#ddccfb" points="310.42 458.62 321.12 451.56 315.77 442.69 307 443.36 298.94 454.93 301.43 459.84 310.42 458.62"></polygon><path fill="#fff" d="M337.39,469.42a51,51,0,0,0-37.78,2.17c-.37-3.17-.73-6.63-1.09-10.33,15-7.87,27.63-6.65,35.68-4.14C335.33,461.43,336.43,465.63,337.39,469.42Z"></path><path fill="#b7d1ff" d="M311.15,507c-27.23,8.14-41,8.81-49.26,5.74L276,493.87l5.48-7.36,8.19-11,1.88-2.53c12.89-8,29.32-21.07,45.17-6.33.24,1,.48,1.87.71,2.78.7,2.77,1.33,5.31,1.86,7.51,1,4,1.58,6.8,1.68,7.8C341.33,489,338.39,498.89,311.15,507Z"></path><path fill="#6788ec" d="M300.49 486l-20.69 5.12 9.61-13.68A23.08 23.08 0 00300.49 486zM306.81 484.4l.14-.58c-7.48-1.8-12.34-5-15-10l5.13-7.3c.26 7.32 7.07 11.68 16.35 16.23z"></path><path fill="#0b0e20" d="M311.15,507c-27.23,8.14-41,8.81-49.26,5.74l19.55-26.27c28.91-3.94,38.74-8.48,49.58-10.45a12.7,12.7,0,0,1,8.23.87c1,4,1.58,6.8,1.68,7.8C341.33,489,338.39,498.89,311.15,507Z"></path><path fill="#6788ec" d="M311.15,507c-27.23,8.14-41,8.81-49.26,5.74L276,493.87c40.87-5.94,56-15.17,65-9.14C341.33,489,338.39,498.89,311.15,507Z"></path><path fill="#0b0e20" d="M318.92,385.6l-4.13,4.49c-4.64-19.4-17.93-51.48-29-67l.47.09c16.8,3.35,22.84,4.26,22.84,4.26l6.81,34.7S317.17,372.72,318.92,385.6Z"></path><polygon fill="#a07df0" points="368.09 332.8 298.04 321.81 317.94 391.44 368.09 332.8"></polygon><path fill="#f1a19e" d="M379,387.38s-8.18-6.48-12.43-1.67l-.07.07c-2.17,2.53-33.95,41.67-56.3,69.47-12.42,15.45-22,27.43-22,27.77C245.13,497.8,250.88,463,250.88,463s11.4-15.28,26-35c18.12-24.4,41.19-55.58,53.73-73,19.42-27,29-26.44,39.88-24l2.46.56Z"></path><path fill="#0b0e20" d="M278.54 426.29a.5.5 0 01-.4-.8c8.91-12 22-29.66 33.75-45.65a.5.5 0 11.81.59c-11.75 16-24.84 33.65-33.75 45.65A.5.5 0 01278.54 426.29zM379 387.38s-8.18-6.48-12.43-1.67c-.44-17 .94-42 4-54.74l2.46.56z"></path><path fill="#b7d1ff" d="M526.56,352.32l-.87,12.35-6.16,16.82-4,11.07c-9.72,1.25-27.72,1.2-49.27,1.17-27.41,0-46,4.45-59.81,8.93l-31.64-9.76s-5.56-42.08-1.76-61.37c0,0,8.26,2,16.17,4.15,2.82.77,5.6,1.55,7.94,2.28l57.45,5.84,4.39.45Z"></path><g clip-path="url(#a)"><path fill="#fff" d="M616.66 250.93H379a.5.5 0 010-1h237.7a.5.5 0 010 1zM616.66 258.59H379a.5.5 0 010-1h237.7a.5.5 0 010 1zM616.66 266.24H379a.5.5 0 010-1h237.7a.5.5 0 010 1zM616.66 273.9H379a.5.5 0 010-1h237.7a.5.5 0 010 1zM616.66 281.56H379a.5.5 0 010-1h237.7a.5.5 0 010 1zM616.66 289.21H379a.5.5 0 010-1h237.7a.5.5 0 010 1zM616.66 296.87H379a.5.5 0 010-1h237.7a.5.5 0 010 1zM616.66 304.53H379a.5.5 0 010-1h237.7a.5.5 0 010 1zM616.66 312.19H379a.5.5 0 010-1h237.7a.5.5 0 010 1zM616.66 319.84H379a.5.5 0 010-1h237.7a.5.5 0 010 1zM616.66 327.5H379a.5.5 0 010-1h237.7a.5.5 0 010 1zM616.66 335.16H379a.5.5 0 010-1h237.7a.5.5 0 010 1zM616.66 342.81H379a.5.5 0 010-1h237.7a.5.5 0 010 1zM616.66 350.47H379a.5.5 0 010-1h237.7a.5.5 0 010 1zM616.66 358.13H379a.5.5 0 010-1h237.7a.5.5 0 010 1zM616.66 365.78H379a.5.5 0 010-1h237.7a.5.5 0 010 1zM616.66 373.44H379a.5.5 0 010-1h237.7a.5.5 0 010 1z"></path></g><path fill="#a07df0" d="M454.56,343.8l-5.2,9.19-.54,3.83L414.21,353,386,340l3.18-4.33c2.82.77,5.6,1.55,7.94,2.28Z"></path><path fill="#a07df0" d="M519.53,381.49l-4,11.07c-9.72,1.25-27.72,1.2-49.27,1.17-27.41,0-46,4.45-59.81,8.93l-31.64-9.76s-5.56-42.08-1.76-61.37c0,0,8.26,2,16.17,4.15,2.82.77,5.6,1.55,7.94,2.28C406.27,341.62,454.43,359.16,519.53,381.49Z"></path><path fill="#b7d1ff" d="M577,329.07l-40.52-.61-1.66-9-7.42,36.49L449.36,353,458,294l-41.65,12.43-11.7-41.85s33.83-10.61,46.84-14.41c15.36-4.49,26.7-2.63,35.12-3,1-.05,2-.12,2.87-.21,7.06-.69,8.92-2.37,8.92-2.37l13.3-.61a28.38,28.38,0,0,0,6.66,4.48c4.64,2.28,10.59,3.89,19.34,5.84,13.52,3,16.38,7.51,25.51,32.16C571.26,308.11,577,329.07,577,329.07Z"></path><g clip-path="url(#b)"><path fill="#fff" d="M616.66 250.93H379a.5.5 0 010-1h237.7a.5.5 0 010 1zM616.66 258.59H379a.5.5 0 010-1h237.7a.5.5 0 010 1zM616.66 266.24H379a.5.5 0 010-1h237.7a.5.5 0 010 1zM616.66 273.9H379a.5.5 0 010-1h237.7a.5.5 0 010 1zM616.66 281.56H379a.5.5 0 010-1h237.7a.5.5 0 010 1zM616.66 289.21H379a.5.5 0 010-1h237.7a.5.5 0 010 1zM616.66 296.87H379a.5.5 0 010-1h237.7a.5.5 0 010 1zM616.66 304.53H379a.5.5 0 010-1h237.7a.5.5 0 010 1zM616.66 312.19H379a.5.5 0 010-1h237.7a.5.5 0 010 1zM616.66 319.84H379a.5.5 0 010-1h237.7a.5.5 0 010 1zM616.66 327.5H379a.5.5 0 010-1h237.7a.5.5 0 010 1zM616.66 335.16H379a.5.5 0 010-1h237.7a.5.5 0 010 1zM616.66 342.81H379a.5.5 0 010-1h237.7a.5.5 0 010 1zM616.66 350.47H379a.5.5 0 010-1h237.7a.5.5 0 010 1zM616.66 358.13H379a.5.5 0 010-1h237.7a.5.5 0 010 1zM616.66 365.78H379a.5.5 0 010-1h237.7a.5.5 0 010 1zM616.66 373.44H379a.5.5 0 010-1h237.7a.5.5 0 010 1z"></path></g><path fill="#f1a19e" d="M458.53,327.3c-4.3-2.11-7.35.14-13.2.3-8.36.23-10.82.18-10.51,2.21s6.46,5.58,12.07,4.86Z"></path><path fill="#f1a19e" d="M564.4,361.89c-8.06,1.46-43.49,3.32-61.3,3.39h-1c-3.8,0-7.21,0-10.27,0-11-.08-17.32-.48-20.38-2.33-3.9-2.36-10.6-7.2-10.6-7.2-2,2.56-9.26,2.83-15-4.53-5.31-6.73-8.37-12.65.15-18.6a77.53,77.53,0,0,1,7.12-4.69c3.64-1.92,5.49-1.14,10.17,2.32a93.81,93.81,0,0,0,13.45,8.65l6.88-.21,11.16-.35,36.54-1.14,9.71-.3-.18-.7-2-7.68,33.17.5c.14.9.27,1.77.4,2.63.71,4.78,1.29,9.1,2.17,14.48C576.11,355.94,568.9,361.07,564.4,361.89Z"></path><path fill="#0b0e20" d="M503.1,365.28h-1c-3.8,0-7.21,0-10.27,0l-8.26-26.59,11.16-.35Z"></path><path fill="#6788ec" d="M518.39,248.47c-6.9,14.94-25.71,14.88-28.88-1.5,7.06-.69,8.92-2.37,8.92-2.37l13.3-.61A28.38,28.38,0,0,0,518.39,248.47Z"></path><path fill="#f1a19e" d="M484.23,205.31c-7.73-1.6-8,9.39-.84,10.06C483.43,215.1,484.23,205.31,484.23,205.31Z"></path><path fill="#0b0e20" d="M484.16,199.56c-3.74.16-8.07-3-2.94-8.11,5.65-5.63,17.27-6.85,23.82-3.45,0,0-1.56-4.44.2-4.47,2.59,0,5.55,6.42,5.55,6.42,1.54-1.19,7.09,1.18,8.76,8.9,2.07,9.55.36,16.11.16,20.43s-.35,5.14,1,7.44c2.62,4.57.17,8-3.81,5.8,0,1.76-.15,5.2-7.14,5.35s-21.63-16.31-21.63-16.31Z"></path><path fill="#f1a19e" d="M510.34,222.47s.12,1.06.33,2.73c.54,4.14,1.63,12,2.8,17,1.65,6.93-1.76,11.55-8.14,12.53s-10.11-2.52-11.1-5.49c-.52-1.55-.94-6.28-1.24-10.44-.25-3.81-.41-7.16-.41-7.16-10.64-1.25-12.75-13.33-8.42-32.05a10.27,10.27,0,0,0,4.38-1c-4.42,5.78,10.33,2.08,10.33,2.08-4.51,6,10.09,2.83,10.09,2.83s-1.16,5,.19,7.62c1.86,3.58,4.49-.76,6.82,2.9C518.76,218.38,514.56,222.82,510.34,222.47Z"></path><path fill="#0b0e20" d="M458 294.54H458a.5.5 0 01-.42-.57l1.84-11.57a.5.5 0 011 .16l-1.84 11.57A.5.5 0 01458 294.54zM374.62 216.82h-.1a.5.5 0 01-.39-.59c1.32-6.47 4-8.83 4.88-9.61l.16-.14a16.27 16.27 0 00.44-3.26.5.5 0 111 .07 16.94 16.94 0 01-.47 3.46 1.13 1.13 0 01-.46.63c-.82.72-3.31 2.92-4.56 9.06A.5.5 0 01374.62 216.82zM355.89 220.1a.5.5 0 01-.1-1c4.14-.85 10.42-3.2 10.82-5 .16-.71-.48-1.91-1.22-3.31-2-3.76-5-9.45.37-17.06a.5.5 0 01.82.58c-5 7.11-2.19 12.47-.3 16 .87 1.63 1.56 2.93 1.31 4-.66 2.88-9.46 5.27-11.6 5.71z"></path><path fill="#0b0e20" d="M363.86,217.45a.5.5,0,0,1-.27-.08c-7.27-4.71-9.46-13.21-5.69-22.19a.5.5,0,1,1,.92.39c-3.56,8.5-1.53,16.53,5.31,21a.5.5,0,0,1-.27.92Z"></path><path fill="#0b0e20" d="M357.68 219.67a.5.5 0 01-.3-.1c-5.74-4.22-8.36-14.53-5.59-22.08a.5.5 0 01.94.34c-2.58 7-.09 17 5.24 20.93a.5.5 0 01-.3.9zM514.24 217.88a.5.5 0 01-.41-.21 2.07 2.07 0 00-1.38-.93 2.73 2.73 0 00-2 .6.5.5 0 11-.6-.8 3.74 3.74 0 012.78-.79 3.07 3.07 0 012 1.35.5.5 0 01-.41.79zM510.67 225.2c-1.91 3.16-7.48 10.84-17.68 13.57-.25-3.81-.41-7.16-.41-7.16 8.25-.65 12.63-3.21 15.63-10.65a3.55 3.55 0 002.13 1.51S510.46 223.53 510.67 225.2z"></path><ellipse cx="496.03" cy="210.35" fill="#0b0e20" rx="1.74" ry="1.03" transform="rotate(-70.63 496.062 210.34)"></ellipse><ellipse cx="487.1" cy="207.21" fill="#0b0e20" rx="1.74" ry="1.03" transform="rotate(-70.63 487.137 207.198)"></ellipse><path fill="#0b0e20" d="M490.69 216.42a.49.49 0 01-.18 0c-2.38-.9-3.11-1.33-2.63-2.89a15.36 15.36 0 011.42-2.72c.33-.54.66-1.1.94-1.63a.5.5 0 01.88.47c-.29.54-.63 1.11-1 1.67a15.22 15.22 0 00-1.32 2.51c-.22.7-.25.79 2 1.65a.5.5 0 01-.18 1zM491.06 221.72a4.08 4.08 0 01-2.33-.8.5.5 0 01.57-.82c1.48 1 2.9.79 4.45-.79a.5.5 0 11.71.7A4.8 4.8 0 01491.06 221.72z"></path><path fill="#fff" d="M288.91 199.73h0a.89.89 0 01.89.89v1a5.77 5.77 0 012.12.56.66.66 0 01.37.59v1.28a.64.64 0 01-1 .55 2.87 2.87 0 00-1.53-.5 1.72 1.72 0 00-1 .36 1.16 1.16 0 00-.48 1 1.1 1.1 0 00.34.8 5.29 5.29 0 001.51.87 9.19 9.19 0 011.66.9 3.41 3.41 0 011 1.19 3.48 3.48 0 01.4 1.67 4.28 4.28 0 01-.83 2.56A4.38 4.38 0 01289.8 215v1.17a.89.89 0 01-.89.89h0a.89.89 0 01-.89-.89v-1a6.84 6.84 0 01-2.53-.65.66.66 0 01-.39-.6v-1.36a.64.64 0 011-.54 3.63 3.63 0 002 .67 1.93 1.93 0 001.34-.48A1.56 1.56 0 00290 211a1.32 1.32 0 00-.44-1 5.75 5.75 0 00-1.53-.86 5.73 5.73 0 01-2.15-1.49 3.27 3.27 0 01-.74-2.21 3.52 3.52 0 01.73-2.26 4.68 4.68 0 012.19-1.43v-1.14A.89.89 0 01288.91 199.73zM374.41 71.32h0a.89.89 0 01.89.89v1a5.77 5.77 0 012.12.56.66.66 0 01.37.59v1.28a.64.64 0 01-1 .55 2.87 2.87 0 00-1.53-.5 1.72 1.72 0 00-1 .36 1.16 1.16 0 00-.48 1 1.1 1.1 0 00.34.8 5.29 5.29 0 001.51.87 9.19 9.19 0 011.66.9 3.41 3.41 0 011 1.19 3.48 3.48 0 01.4 1.67 4.28 4.28 0 01-.83 2.56 4.38 4.38 0 01-2.52 1.61V87.8a.89.89 0 01-.89.89h0a.89.89 0 01-.89-.89v-1a6.84 6.84 0 01-2.53-.65.66.66 0 01-.39-.6V84.2a.64.64 0 011-.54 3.63 3.63 0 002 .67 1.93 1.93 0 001.34-.48 1.56 1.56 0 00.54-1.22 1.32 1.32 0 00-.44-1 5.75 5.75 0 00-1.53-.86 5.73 5.73 0 01-2.15-1.49 3.27 3.27 0 01-.74-2.21 3.52 3.52 0 01.73-2.26 4.68 4.68 0 012.19-1.43V72.21A.89.89 0 01374.41 71.32z"></path><path fill="#0b0e20" d="M460.83 356.22a.5.5 0 01-.31-.11 8.72 8.72 0 00-2.3-1.42.48.48 0 01-.48-.5.52.52 0 01.52-.5 7.58 7.58 0 012.87 1.63.5.5 0 01-.31.89zM572.34 331.62c-11.95.77-26.19 3.47-31.56 4.55l-2-7.68 33.17.5C572.08 329.89 572.21 330.76 572.34 331.62z"></path><circle cx="492.86" cy="350.62" r="7.77" fill="#0b0e20"></circle><circle cx="492.86" cy="350.62" r="5.5" fill="#fff"></circle><path fill="#0b0e20" d="M494.7 353.75a.5.5 0 01-.44-.26l-1.61-2.87-2.35 1.13a.5.5 0 01-.43-.9l2.78-1.33a.5.5 0 01.65.21l1.84 3.29a.5.5 0 01-.44.74zM451.11 356.22l-.16 0a.5.5 0 01-.31-.63c1.58-4.64 6.18-7 6.37-7.09a.5.5 0 01.45.89s-4.43 2.28-5.88 6.52A.5.5 0 01451.11 356.22zM445.78 351.69a.5.5 0 01-.46-.69 17.85 17.85 0 017.92-8.6.5.5 0 01.43.9 17.16 17.16 0 00-7.43 8.09A.5.5 0 01445.78 351.69zM442.08 346.26a.5.5 0 01-.47-.67 20 20 0 017.55-9.71.5.5 0 01.52.86 19.35 19.35 0 00-7.12 9.2A.5.5 0 01442.08 346.26zM401.93 404.66a.5.5 0 01-.17-1q2.15-.75 4.48-1.5c11.82-3.85 30.84-9 59.61-9h1.56c20.65 0 38.49.05 48-1.17a27.45 27.45 0 005.35-1.1.5.5 0 01.33.94 28.41 28.41 0 01-5.55 1.14c-9.57 1.23-27.43 1.2-48.13 1.18h-1.56c-28.63 0-47.54 5.08-59.3 8.91q-2.32.75-4.46 1.5A.49.49 0 01401.93 404.66z"></path><path fill="#a07df0" d="M310.16,455.25l-5.62,7c-4.21,5.26-7.88,9.86-10.67,13.38-3.54,4.48-5.66,7.23-5.66,7.39-1.35.46-2.66.88-3.92,1.25C245.49,495.65,250.88,463,250.88,463l10.18-13.66,6.4-8.59,4.12-5.54,5.35-7.21Z"></path><path fill="#ddccfb" d="M293.87,475.63c-3.54,4.48-5.66,7.23-5.66,7.39-1.35.46-2.66.88-3.92,1.25l-1.15-9.17Z"></path><polygon fill="#ddccfb" points="264.45 466.54 269.03 473.19 274.03 466.96 264.45 466.54"></polygon><polygon fill="#ddccfb" points="287.77 455.94 283.27 464.42 290.06 465.39 287.77 455.94"></polygon><polygon fill="#ddccfb" points="278.1 437.2 278.87 449.53 288.19 444.41 278.1 437.2"></polygon><polygon fill="#ddccfb" points="271.23 450.95 261.06 449.3 267.46 440.71 271.23 450.95"></polygon><path fill="#0b0e20" d="M448.82,357.32a.5.5,0,0,1-.17,0l-69.86-25.85a.5.5,0,1,1,.35-.94L449,356.35a.5.5,0,0,1-.17,1Z"></path><path fill="#fff" d="M310.16,455.25l-5.62,7-33-27.08,5.35-7.21Z"></path><path fill="#b7d1ff" d="M589,478.32s6.4-1.62,7.67,4.32c1.74,8.14-.23,15.64-2.51,17.88-3,3-9,0-9,0Z"></path><path fill="#6788ec" d="M484.61,477.09c-2.18,24.76-8.94,45.05-15.08,45.33s-9.35-19.58-7.16-44.34,8.94-45.05,15.08-45.33S486.8,452.33,484.61,477.09Z"></path><path fill="#fff" d="M476.71,476.82c-.5,5.16,1.27,9.48,5.68,9.91s8.39-3.4,8.89-8.56-2.67-9.68-7.07-10.11S477.21,471.66,476.71,476.82Z"></path><path fill="#b7d1ff" d="M584.63,504.47c-8.25.37-28.86-2.29-43.22-2.35h0c-15.59-.05-32.91,5.17-57.48,14-1.4.5-2.72,1-4,1.59-1.87.82-3.58,1.65-5.19,2.36-.52.23-1,.45-1.54.65-.34.15-.67.27-1,.39,5.31-4.92,10.52-22.82,12.39-44s-.21-38.79-4.71-43.24c.53.17,1.05.37,1.57.59l.6.26c.42.19.83.4,1.25.63l.54.3c.81.45,1.62,1,2.46,1.53.41.28.82.58,1.24.88,1.69,1.23,3.51,2.68,5.6,4.34,12.49,9.94,43,24.24,51.69,25.65l.27,0c19.77,3.2,29.49,4.15,38.36,4.89C597.44,474.13,594.25,504,584.63,504.47Z"></path><path fill="#0b0e20" d="M489.51,475.08c-1.29,17.3-5,32.83-9.56,42.6-1.87.82-3.58,1.65-5.19,2.36-.52.23-1,.45-1.54.65-.34.15-.67.27-1,.39,5.31-4.92,10.52-22.82,12.39-44s-.21-38.79-4.71-43.24c.53.17,1.05.37,1.57.59l.6.26c.42.19.83.4,1.25.63l.54.3c.81.45,1.62,1,2.46,1.53.41.28.82.58,1.24.88C489.78,447.26,490.61,460.39,489.51,475.08Z"></path><path fill="#6788ec" d="M584.63,504.47c-8.25.37-28.86-2.29-43.22-2.35,7.7-10.71,8.5-22.46,3.71-34.05,19.77,3.2,29.49,4.15,38.36,4.89C597.44,474.13,594.25,504,584.63,504.47Z"></path><path fill="#b7d1ff" d="M575.22,499.46,573,525.59a9.47,9.47,0,1,1-18.79-2.33l4.22-25.84a8.47,8.47,0,0,1,8.35-7.13c.29,0,.59,0,.89,0A8.47,8.47,0,0,1,575.22,499.46Z"></path><path fill="#6788ec" d="M571.25,530.31a9.47,9.47,0,0,1-16.79-2.86c1.49-1.89,5-2.87,8.89-2.27C567.41,525.81,570.57,528,571.25,530.31Z"></path><circle cx="414.4" cy="165.37" r="15.31" fill="#a07df0"></circle><polygon fill="#fff" points="411.37 173.97 411.37 156.78 421.44 165.37 411.37 173.97"></polygon><rect width="31.14" height="27.05" x="260.82" y="244.2" fill="#6788ec" rx="4.81" ry="4.81"></rect><path fill="#6788ec" d="M234.4,196.23v19.12a4.56,4.56,0,0,1-.27,1.58,4.81,4.81,0,0,1-4.54,3.22H209.41a4.8,4.8,0,0,1-4.81-4.8V196.23a4.81,4.81,0,0,1,4.81-4.81h20.18A4.81,4.81,0,0,1,234.4,196.23Z"></path><path fill="#fff" d="M264.86,150a3.73,3.73,0,0,0-4.81,3.66,3.73,3.73,0,0,0-4.81-3.66,5,5,0,0,0-2.64,7c1.57,3.33,4.86,3.46,7.45,6.29,2.59-2.83,5.88-3,7.45-6.29A5,5,0,0,0,264.86,150Z"></path><path fill="#b7d1ff" d="M234.13,216.93a4.81,4.81,0,0,1-4.54,3.22H209.41a4.8,4.8,0,0,1-4.81-4.8v-1.1L214,200.42l8.3,13.78,4.78-8.41Z"></path><circle cx="222.92" cy="199.73" r="2.95" fill="#fff"></circle><path fill="#fff" d="M289.73,480.91,277.64,498l-8.8,12.48-4.69,6.64-52.48-36.8-25-17.52a11.56,11.56,0,0,1,.58-1.11,21.4,21.4,0,0,1,4.53-5.47c3.51-3,9-5.87,17.25-5.22,15.3,1.21,17.66,5.3,33.8,5.77,9.86.29,12.69,4.92,13,7.47.32,2.78-1.54,7.87-1.54,7.87h0C254.82,472.45,272.47,482.46,289.73,480.91Z"></path><path fill="#b7d1ff" d="M277.64,498l-8.8,12.48-4.69,6.64-11.33-7.94-41.15-28.86c1.37-2.23,2.82-4.65,2.82-4.65,10.64.92,27.76,2.45,37.61,3.59,1.56.19,3,.36,4.09.52C264.46,481,275,487.74,277.64,498Z"></path><path fill="#6788ec" d="M233.64 477.42c-6.86-.63-13.82-1.25-19.15-1.71 0 0-1.45 2.42-2.82 4.65l24 16.84C233.49 491.11 233.08 483.49 233.64 477.42zM252.1 479.3c-1.91-.22-4.08-.46-6.43-.7-.63 6.61 0 15.62 3.18 21.31l-3.49 2c-3.64-6.51-4.37-16.28-3.65-23.66l-4.1-.41c-.6 6.59 0 15.46 3.19 21.08l-1.51.85 13.53 9.49 2-3A46.1 46.1 0 01252.1 479.3z"></path><path fill="#b7d1ff" d="M254.3,472.15c-7.07-3.32-44.37-18.82-54.3-2l-12.72-8.44a21.4,21.4,0,0,1,4.53-5.47c3.51-3,9-5.87,17.25-5.22,15.3,1.21,17.66,5.3,33.8,5.77,9.86.29,12.69,4.92,13,7.47C256.16,467.06,254.3,472.15,254.3,472.15Z"></path><path fill="#0b0e20" d="M247.42,471.58a.5.5,0,0,1-.36-.15l-16.71-17.29a.5.5,0,0,1,.72-.7l16.71,17.29a.5.5,0,0,1-.36.85Z"></path><path fill="#0b0e20" d="M232.52,468.92a.5.5,0,0,1-.35-.14L213.1,449.88a.5.5,0,0,1,.7-.71l18.58,18.41,6.43-12.86a.5.5,0,1,1,.89.45L233,468.64a.5.5,0,0,1-.37.27Z"></path><path fill="#0b0e20" d="M220.55 465.89a.49.49 0 01-.17 0 .5.5 0 01-.31-.64l4.72-13.42a.5.5 0 01.94.33L221 465.55A.5.5 0 01220.55 465.89zM268.84 510.52l-4.69 6.64L186.7 462.84a20.41 20.41 0 015.11-6.58C206.92 466.87 246.48 494.68 268.84 510.52z"></path><path fill="#fff" d="M348.76 169.3a1 1 0 01-.61-1.79l8.23-6.31-8.23-6.31a1 1 0 011.22-1.59l9.27 7.1a1 1 0 010 1.59l-9.27 7.1A1 1 0 01348.76 169.3zM332.94 169.3a1 1 0 01-.61-.21l-9.27-7.1a1 1 0 010-1.59l9.27-7.1a1 1 0 111.22 1.59l-8.23 6.31 8.23 6.31a1 1 0 01-.61 1.79zM337.58 169.31a1 1 0 01-.91-1.42l6.55-14.21a1 1 0 111.82.84l-6.55 14.21A1 1 0 01337.58 169.31z"></path><circle cx="281.51" cy="252.12" r="1.85" fill="#fff"></circle><circle cx="281.51" cy="263.33" r="1.85" fill="#fff"></circle><circle cx="271.26" cy="257.73" r="1.85" fill="#fff"></circle><polygon fill="#fff" points="281.33 263.66 270.48 257.73 281.33 251.79 281.69 252.45 272.05 257.73 281.69 263 281.33 263.66"></polygon></svg>